<svg width="20" height="19" viewBox="0 0 20 19" fill="none" xmlns="http://www.w3.org/2000/svg">
<g filter="url(#filter0_d_7676_388)">
<path d="M10.0008 0.666664C5.39665 0.666664 1.66748 4.39583 1.66748 9C1.66748 12.6875 4.0529 15.8021 7.3654 16.9062C7.78206 16.9792 7.93831 16.7292 7.93831 16.5104C7.93831 16.3125 7.9279 15.6562 7.9279 14.9583C5.83415 15.3437 5.29248 14.4479 5.12581 13.9792C5.03206 13.7396 4.62581 13 4.27165 12.8021C3.97998 12.6458 3.56331 12.2604 4.26123 12.25C4.91748 12.2396 5.38623 12.8542 5.54248 13.1042C6.29248 14.3646 7.4904 14.0104 7.96956 13.7917C8.04248 13.25 8.26123 12.8854 8.50083 12.6771C6.64665 12.4687 4.70915 11.75 4.70915 8.5625C4.70915 7.65625 5.03206 6.90625 5.56331 6.32291C5.47998 6.11458 5.18831 5.26041 5.64665 4.11458C5.64665 4.11458 6.34456 3.89583 7.93831 4.96875C8.605 4.78125 9.31333 4.6875 10.0217 4.6875C10.73 4.6875 11.4383 4.78125 12.105 4.96875C13.6987 3.88541 14.3967 4.11458 14.3967 4.11458C14.855 5.26041 14.5633 6.11458 14.48 6.32291C15.0112 6.90625 15.3342 7.64583 15.3342 8.5625C15.3342 11.7604 13.3862 12.4687 11.5321 12.6771C11.8342 12.9375 12.0946 13.4375 12.0946 14.2187C12.0946 15.3333 12.0842 16.2292 12.0842 16.5104C12.0842 16.7292 12.2404 16.9896 12.6571 16.9062C16.0492 15.7611 18.3332 12.5802 18.3342 9C18.3342 4.39583 14.605 0.666664 10.0008 0.666664Z" fill="#4338CA"/>
</g>
<defs>
<filter id="filter0_d_7676_388" x="-2.33252" y="0.666664" width="24.6667" height="24.2555" filterUnits="userSpaceOnUse" color-interpolation-filters="sRGB">
<feFlood flood-opacity="0" result="BackgroundImageFix"/>
<feColorMatrix in="SourceAlpha" type="matrix" values="0 0 0 0 0 0 0 0 0 0 0 0 0 0 0 0 0 0 127 0" result="hardAlpha"/>
<feOffset dy="4"/>
<feGaussianBlur stdDeviation="2"/>
<feComposite in2="hardAlpha" operator="out"/>
<feColorMatrix type="matrix" values="0 0 0 0 0 0 0 0 0 0 0 0 0 0 0 0 0 0 0.25 0"/>
<feBlend mode="normal" in2="BackgroundImageFix" result="effect1_dropShadow_7676_388"/>
<feBlend mode="normal" in="SourceGraphic" in2="effect1_dropShadow_7676_388" result="shape"/>
</filter>
</defs>
</svg>
