<svg width="20" height="19" viewBox="0 0 20 19" fill="none" xmlns="http://www.w3.org/2000/svg">
<g filter="url(#filter0_d_7676_408)">
<path d="M10.8567 0.66748C11.7946 0.66903 12.2698 0.673989 12.6805 0.686214L12.8422 0.691506C13.0291 0.698147 13.2134 0.706481 13.4357 0.716897C14.3224 0.757864 14.9273 0.898147 15.4586 1.1044C16.0078 1.3162 16.4717 1.60231 16.9349 2.06551C17.3974 2.5287 17.6836 2.99398 17.8961 3.5419C18.1016 4.07245 18.2419 4.67801 18.2836 5.56481C18.2935 5.78703 18.3015 5.97136 18.3081 6.15824L18.3133 6.31997C18.3255 6.7306 18.3311 7.20591 18.3328 8.14375L18.3335 8.76516C18.3336 8.84108 18.3336 8.91942 18.3336 9.00025L18.3335 9.23533L18.333 9.85675C18.3314 10.7946 18.3265 11.2698 18.3142 11.6805L18.3089 11.8422C18.3023 12.0291 18.294 12.2134 18.2836 12.4357C18.2426 13.3224 18.1016 13.9273 17.8961 14.4586C17.6842 15.0078 17.3974 15.4717 16.9349 15.9349C16.4717 16.3974 16.0057 16.6836 15.4586 16.8961C14.9273 17.1016 14.3224 17.2419 13.4357 17.2836C13.2134 17.2935 13.0291 17.3015 12.8422 17.3081L12.6805 17.3133C12.2698 17.3255 11.7946 17.3311 10.8567 17.3328L10.2353 17.3335C10.1594 17.3336 10.0811 17.3336 10.0002 17.3336L9.76516 17.3335L9.14375 17.333C8.20591 17.3314 7.7306 17.3265 7.31997 17.3142L7.15824 17.3089C6.97136 17.3023 6.78703 17.294 6.56481 17.2836C5.67801 17.2426 5.07384 17.1016 4.5419 16.8961C3.99328 16.6842 3.5287 16.3974 3.06551 15.9349C2.60231 15.4717 2.3169 15.0057 2.1044 14.4586C1.89815 13.9273 1.75856 13.3224 1.7169 12.4357C1.707 12.2134 1.69892 12.0291 1.69238 11.8422L1.68714 11.6805C1.67495 11.2698 1.66939 10.7946 1.66759 9.85675L1.66748 8.14375C1.66903 7.20591 1.67399 6.7306 1.68621 6.31997L1.69151 6.15824C1.69815 5.97136 1.70648 5.78703 1.7169 5.56481C1.75786 4.67731 1.89815 4.07315 2.1044 3.5419C2.3162 2.99328 2.60231 2.5287 3.06551 2.06551C3.5287 1.60231 3.99398 1.3169 4.5419 1.1044C5.07315 0.898147 5.67731 0.758564 6.56481 0.716897C6.78703 0.706997 6.97136 0.698922 7.15824 0.692381L7.31997 0.687139C7.7306 0.674947 8.20591 0.669389 9.14375 0.667589L10.8567 0.66748ZM10.0002 4.83356C7.69781 4.83356 5.83356 6.69984 5.83356 9.00025C5.83356 11.3027 7.69984 13.1669 10.0002 13.1669C12.3027 13.1669 14.1669 11.3006 14.1669 9.00025C14.1669 6.69781 12.3006 4.83356 10.0002 4.83356ZM10.0002 6.50023C11.381 6.50023 12.5002 7.61908 12.5002 9.00025C12.5002 10.381 11.3813 11.5002 10.0002 11.5002C8.6195 11.5002 7.50023 10.3813 7.50023 9.00025C7.50023 7.6195 8.61908 6.50023 10.0002 6.50023ZM14.3752 3.58356C13.8008 3.58356 13.3336 4.05015 13.3336 4.62452C13.3336 5.19889 13.8002 5.6662 14.3752 5.6662C14.9496 5.6662 15.4169 5.19961 15.4169 4.62452C15.4169 4.05015 14.9488 3.58284 14.3752 3.58356Z" fill="#4338CA"/>
</g>
<defs>
<filter id="filter0_d_7676_408" x="-2.33252" y="0.66748" width="24.6661" height="24.6661" filterUnits="userSpaceOnUse" color-interpolation-filters="sRGB">
<feFlood flood-opacity="0" result="BackgroundImageFix"/>
<feColorMatrix in="SourceAlpha" type="matrix" values="0 0 0 0 0 0 0 0 0 0 0 0 0 0 0 0 0 0 127 0" result="hardAlpha"/>
<feOffset dy="4"/>
<feGaussianBlur stdDeviation="2"/>
<feComposite in2="hardAlpha" operator="out"/>
<feColorMatrix type="matrix" values="0 0 0 0 0 0 0 0 0 0 0 0 0 0 0 0 0 0 0.25 0"/>
<feBlend mode="normal" in2="BackgroundImageFix" result="effect1_dropShadow_7676_408"/>
<feBlend mode="normal" in="SourceGraphic" in2="effect1_dropShadow_7676_408" result="shape"/>
</filter>
</defs>
</svg>
